<svg width="1080" height="480" viewBox="0 0 1080 480" fill="none" xmlns="http://www.w3.org/2000/svg">
<rect width="1080" height="480" fill="white"/>
<path d="M725.502 195.666L722.547 197.636L723.778 188.77L715.158 190.986L713.68 188.77V183.351L711.217 178.179L713.68 176.701L715.897 171.282L720.576 167.095L726.241 162.908V161.184L732.153 157.243V154.288L736.093 153.549L738.31 150.1L737.325 145.174L745.207 134.337V131.382L750.133 125.224L752.596 124.732L756.536 118.081V111.924L759.984 107.737L761.216 101.579L764.911 97.3922L768.359 95.9144L775.255 103.057L782.644 106.505L787.078 105.274H791.757L796.683 104.042L801.363 100.84L798.654 109.954L795.698 111.924L791.757 109.954L786.339 113.155V116.357L780.674 122.269L766.142 124.732L761.216 130.396V134.337L754.32 138.032L750.379 143.204L747.916 148.376L748.901 154.288L746.192 152.563L744.221 153.549L742.005 158.967V164.878L736.093 167.834H730.675L726.241 173.745L725.502 195.666Z" stroke="#ABABAB"/>
<path d="M702.596 336.796V330.885L711.217 333.348L714.665 325.959L725.01 319.062L732.891 306.994V295.664L742.251 299.851L745.945 296.895V289.999L751.61 282.61H757.029L758.999 277.191L756.043 263.891L760.231 255.517L763.679 258.226L770.575 274.728H784.368L798.161 267.339L816.633 239.015L827.717 235.32L836.83 239.015V243.202L831.904 247.389L836.83 253.793L834.121 260.443L817.619 262.167L807.766 270.541L793.727 277.191L777.718 291.231L770.575 305.516L763.679 309.457L753.58 311.92L749.147 306.994L742.251 309.457L740.773 314.383L744.221 316.107L740.773 325.959L732.891 333.348L725.01 338.028L713.434 360.934H704.32L699.148 366.598L695.946 374.726L693.237 378.175H686.587L685.355 374.726L686.587 368.815L691.266 366.598L692.252 363.15L689.542 357.978L691.266 355.515L694.715 360.934L698.163 358.963V354.283L695.946 350.589H699.148L702.596 352.806L709.739 346.156V338.028L702.596 336.796Z" stroke="#ABABAB"/>
<path d="M809.491 176.701L807.274 173.992L816.88 170.297L822.052 164.878L827.717 162.908L834.367 167.588L833.628 171.529H828.948L824.515 174.977V177.686L814.417 185.321L809.491 181.627V176.701Z" stroke="#ABABAB"/>
<path d="M785.107 197.883L786.831 194.681H790.526L791.265 197.883H785.107Z" stroke="#ABABAB"/>
<path d="M774.023 215.863L768.851 209.212L774.023 205.764L776.24 207.242L779.688 207.735L777.964 210.198L778.703 212.907L774.023 215.863Z" stroke="#ABABAB"/>
<path d="M768.112 223.991C767.718 224.188 766.306 222.595 765.649 221.774C767.045 220.789 770.132 218.621 771.314 217.833C772.496 217.045 772.956 218.654 773.038 219.557C771.56 220.953 768.506 223.793 768.112 223.991Z" stroke="#ABABAB"/>
<path d="M761.216 228.424L762.447 226.207H763.925L766.142 227.439L763.186 230.148L761.216 228.424Z" stroke="#ABABAB"/>
<path d="M755.305 222.513L751.856 218.572L752.595 217.833H759.245L759.984 221.281L755.305 222.513Z" stroke="#ABABAB"/>
<path d="M251.867 388.519L254.33 386.056L254.822 388.765L251.867 393.691V400.341L250.389 404.528L247.926 405.514L247.187 407.977L244.724 404.528V398.864L243 396.647V394.184L245.217 390.243L251.867 388.519Z" stroke="#ABABAB"/>
<path d="M357.037 46.6544L361.963 42.4673L363.933 44.4377H368.367L371.815 48.6248L373.539 53.7971L369.106 58.9694L365.904 60.4472L358.269 53.7971V50.1026L357.037 48.6248V46.6544Z" stroke="#ABABAB"/>
<path d="M395.706 23.2558C396.035 22.3527 396.79 20.0539 397.184 18.0835L401.125 23.2558L409.253 22.0243L413.933 18.5761L415.164 9.7093L418.12 7L420.583 7.4926L423.785 14.8816H426.248L429.449 21.2854L438.563 27.1966L447.183 36.3097L459.744 51.0877L470.828 60.4471V63.649L476 68.0825L476.739 73.5011L481.419 77.9345L486.837 85.8161L505.803 104.042L510.729 110.446L519.595 116.85L531.171 123.007L531.664 124.731L542.009 129.904L543.733 134.091L546.196 136.308C549.972 137.95 557.624 141.283 558.018 141.48C558.412 141.677 571.318 146.16 577.722 148.376V149.115L570.333 147.884L569.348 149.115L572.304 151.825L573.781 156.504H576.244L578.954 158.475H580.678L583.141 156.997L585.604 157.982L588.313 156.504L591.022 158.475L593.485 156.997V153.795L590.037 153.056L578.954 149.115L581.663 149.608L590.037 151.825L600.136 153.795L603.584 153.056L610.234 155.273L605.554 156.997L605.062 164.386L608.017 165.864L612.204 161.43L611.465 155.765H614.175L616.884 153.795L617.869 162.415L620.332 163.893L621.317 167.341L625.504 170.297L634.618 172.76L649.149 173.253L654.568 172.76L661.957 170.297L664.912 166.11L669.1 163.647L676.981 153.795L677.966 150.593L679.937 150.1L691.513 139.263L694.222 131.874L701.611 121.283L704.813 130.396L702.843 138.032L697.67 144.682L696.193 149.115V155.026L690.528 162.908L685.848 172.76V180.888L683.878 183.351L684.617 189.755L688.311 193.449L691.513 200.346L694.961 201.577L703.335 203.794L708.754 205.764L709.493 209.212L707.276 210.69L703.335 210.198L704.321 209.212L707.276 207.981L706.537 206.257L700.38 206.503L701.119 204.533L696.932 203.055L696.439 205.764L698.656 207.242L701.858 216.601L703.335 223.744C704.238 225.55 706.192 229.311 706.784 229.902C707.375 230.493 708.836 232.611 709.493 233.596L715.158 237.537H713.434L708.261 234.828L707.276 231.872H702.35L701.119 234.089L703.335 236.059L708.261 235.32L709.985 237.044L706.784 237.537L708.261 240.985L709.985 239.261L714.419 241.478L719.099 240.985L715.897 238.522L723.039 240L726.488 235.32L731.906 230.394L734.123 226.207H740.773L742.743 224.729L744.96 225.468H747.669V227.685L742.743 231.872H738.803L737.325 233.596H733.138L731.167 238.522H728.458L727.965 245.665L726.488 246.65V248.867L724.763 249.606L726.488 251.576L723.532 252.315L723.039 249.606L713.434 250.591L709.493 252.808L706.784 252.315L701.119 256.995L698.163 255.271L693.73 257.734L692.991 260.443L693.73 262.66H698.163C698.557 262.66 697.67 264.137 697.178 264.876H695.207L693.73 263.891L692.252 264.876V267.586L687.326 269.556V272.265L683.139 275.221L680.676 274.482H675.257L671.809 270.541L673.533 268.817C674.6 269.638 676.833 271.379 677.228 271.773C677.622 272.167 679.69 269.638 680.676 268.325L679.198 266.108H675.257L673.533 263.891L672.794 267.586H668.114L664.42 272.265L663.681 276.945L669.346 280.886L660.479 281.871L655.553 280.393L648.164 280.886L645.701 282.364H642.745L635.603 279.901L635.11 278.423L630.923 276.452L625.504 277.191L618.115 279.901L606.293 287.043L598.658 293.94L588.806 304.777L576.983 318.816L567.378 332.116L560.481 345.909L556.294 358.963L555.801 365.367L558.511 370.293L557.279 374.48V386.056L553.585 390.982L552.6 396.401L553.092 399.849L545.949 393.938L544.718 390.982L538.068 386.056L533.142 384.332L528.708 380.391L517.132 379.16L511.714 375.465L504.817 374.726L497.921 369.308H494.226L492.01 367.337H489.054L485.852 363.396H482.65L470.089 355.022L465.409 349.357L460.483 347.387H454.818L451.124 346.648L447.183 342.707L435.607 335.072H431.42L428.957 333.101H419.597L418.859 331.624L415.657 333.84L411.962 334.333L401.125 339.752L385.115 354.776H383.145L375.017 363.643L369.845 372.263L365.658 371.771L363.934 368.815L364.919 367.337C365.411 367.83 366.594 368.914 367.382 369.308C368.17 369.702 369.352 367.83 369.845 366.845L363.934 365.859L361.471 363.643L358.761 356.007L355.313 354.776L352.358 352.067H350.387L349.648 348.126L343.983 343.446H338.811L334.378 345.663L330.19 343.446L325.018 344.431L318.614 352.313L312.949 366.598L311.472 376.45L312.949 382.608L317.383 384.578H321.57L333.392 394.677L338.318 395.662L342.752 393.199H346.2L347.924 391.721L352.358 393.938L356.052 397.878L356.545 401.327L365.165 407.238L368.367 413.642L373.786 416.597L380.928 417.336L385.362 420.292L384.623 422.016L389.549 424.725L386.347 427.188H382.899L380.436 432.36L371.569 437.04L367.874 433.099L358.515 430.636H354.082L350.88 434.577L348.663 433.099L349.895 430.636H352.358L349.402 425.71L344.23 427.188L342.752 435.07L336.348 440.488H331.915L328.466 443.69L330.437 456.498L328.466 460.685H324.772L316.644 465.365L311.964 473L308.27 471.522L303.836 473L298.418 468.813L293.984 455.266L295.462 443.69L300.142 436.794V429.651H303.836V412.164L292.26 397.386H284.625L280.438 388.519L274.527 387.78L271.078 379.652V374.726L274.527 371.771L276.004 362.165L273.049 345.909L276.004 339.505L281.423 335.811H290.782L292.26 331.624L297.186 327.929L301.62 319.062L305.56 325.22L310.24 323.249V319.062L313.935 314.136L317.875 305.27L326.496 299.605V296.156L321.816 290.738L317.875 284.088L313.935 282.364L308.023 276.206L310.24 263.399H315.659L317.875 260.443V258.226H321.816L331.915 267.339L345.461 272.512V274.975L349.402 276.206L363.195 269.063L365.165 272.512L363.195 274.975L376.988 279.162L383.391 274.975L395.706 258.226V247.635L388.564 236.552L390.288 230.148L385.854 214.877L388.564 206.503L395.706 200.592L403.342 197.636L408.268 189.262L409.992 179.164L405.558 146.899L408.268 145.174L412.455 132.121V119.559L414.918 115.618V108.229L408.268 79.6586L394.229 52.3192L391.766 43.6987L395.706 38.0338V33.3541L398.662 28.4281L395.706 23.2558Z" stroke="#ABABAB"/>
<path d="M342.013 22.5168V20.5464L344.722 23.0094H347.185V20.5464L350.141 22.5168L349.648 25.2261L350.141 29.4132L349.648 41.2356L348.417 41.9745L347.185 41.2356L347.924 38.28L343.983 30.6447V25.2261L342.013 22.5168Z" stroke="#ABABAB"/>
<path d="M589.012 347.8C588.98 346.072 588.548 344.776 587.716 343.912C586.884 343.016 585.556 342.568 583.732 342.568C582.132 342.568 580.772 342.952 579.652 343.72C578.564 344.488 577.636 345.464 576.868 346.648C576.132 347.832 575.524 349.128 575.044 350.536C574.564 351.944 574.148 353.272 573.796 354.52H573.892C574.692 353.336 575.764 352.472 577.108 351.928C578.484 351.384 579.892 351.112 581.332 351.112C582.74 351.112 584.036 351.368 585.22 351.88C586.404 352.392 587.412 353.112 588.244 354.04C589.108 354.936 589.764 355.992 590.212 357.208C590.692 358.392 590.932 359.688 590.932 361.096C590.932 362.856 590.644 364.504 590.068 366.04C589.524 367.544 588.724 368.856 587.668 369.976C586.612 371.096 585.332 371.976 583.828 372.616C582.356 373.224 580.676 373.528 578.788 373.528C577.028 373.528 575.492 373.24 574.18 372.664C572.9 372.088 571.844 371.304 571.012 370.312C570.18 369.288 569.556 368.072 569.14 366.664C568.756 365.256 568.564 363.736 568.564 362.104C568.564 360.984 568.628 359.816 568.756 358.6C568.884 357.352 569.076 356.12 569.332 354.904C569.588 353.688 569.892 352.504 570.244 351.352C570.596 350.2 570.996 349.128 571.444 348.136C572.66 345.288 574.276 343.048 576.292 341.416C578.34 339.784 581.044 338.968 584.404 338.968C587.22 338.968 589.396 339.752 590.932 341.32C592.468 342.856 593.268 345.016 593.332 347.8H589.012ZM586.612 361.288C586.612 359.336 586.068 357.752 584.98 356.536C583.924 355.32 582.388 354.712 580.372 354.712C579.156 354.712 578.084 354.936 577.156 355.384C576.228 355.832 575.444 356.44 574.804 357.208C574.164 357.976 573.684 358.872 573.364 359.896C573.044 360.888 572.884 361.96 572.884 363.112C572.884 365.128 573.396 366.776 574.42 368.056C575.444 369.336 577.028 369.976 579.172 369.976C580.42 369.976 581.508 369.736 582.436 369.256C583.364 368.776 584.132 368.136 584.74 367.336C585.38 366.504 585.844 365.576 586.132 364.552C586.452 363.496 586.612 362.408 586.612 361.288Z" fill="white"/>
<path d="M543.764 350.536C543.956 348.776 544.356 347.192 544.964 345.784C545.572 344.344 546.388 343.128 547.412 342.136C548.436 341.112 549.668 340.328 551.108 339.784C552.548 339.24 554.18 338.968 556.004 338.968C557.38 338.968 558.644 339.176 559.796 339.592C560.98 340.008 561.988 340.616 562.82 341.416C563.684 342.184 564.356 343.128 564.836 344.248C565.316 345.368 565.556 346.632 565.556 348.04C565.556 349.416 565.316 350.68 564.836 351.832C564.356 352.952 563.716 353.992 562.916 354.952C562.148 355.88 561.252 356.744 560.228 357.544C559.204 358.312 558.132 359.048 557.012 359.752C555.892 360.424 554.772 361.08 553.652 361.72C552.532 362.328 551.492 362.936 550.532 363.544C549.988 363.896 549.428 364.28 548.852 364.696C548.308 365.112 547.78 365.576 547.268 366.088C546.788 366.568 546.34 367.096 545.924 367.672C545.508 368.216 545.188 368.792 544.964 369.4H562.676L561.908 373H540.26C540.388 371.272 540.724 369.768 541.268 368.488C541.844 367.176 542.548 366.008 543.38 364.984C544.244 363.96 545.22 363.048 546.308 362.248C547.396 361.448 548.532 360.68 549.716 359.944C550.9 359.208 552.1 358.488 553.316 357.784C554.532 357.08 555.7 356.312 556.82 355.48C557.428 355 558.004 354.52 558.548 354.04C559.092 353.528 559.556 353 559.94 352.456C560.356 351.88 560.676 351.256 560.9 350.584C561.124 349.912 561.236 349.144 561.236 348.28C561.236 346.456 560.724 345.048 559.7 344.056C558.676 343.064 557.284 342.568 555.524 342.568C554.372 342.568 553.348 342.792 552.452 343.24C551.556 343.656 550.788 344.232 550.148 344.968C549.54 345.672 549.06 346.52 548.708 347.512C548.356 348.472 548.148 349.48 548.084 350.536H543.764Z" fill="white"/>
<path d="M519.348 361.048C519.348 363.768 519.764 365.944 520.596 367.576C521.428 369.176 522.852 369.976 524.868 369.976C526.116 369.976 527.236 369.624 528.228 368.92C529.22 368.216 530.084 367.32 530.82 366.232C531.556 365.144 532.164 363.944 532.644 362.632C533.156 361.288 533.556 359.992 533.844 358.744C534.164 357.464 534.388 356.312 534.516 355.288C534.676 354.232 534.756 353.464 534.756 352.984C534.756 352.344 534.756 351.656 534.756 350.92C534.788 350.152 534.772 349.384 534.708 348.616C534.676 347.848 534.564 347.096 534.372 346.36C534.212 345.624 533.94 344.984 533.556 344.44C533.172 343.864 532.66 343.416 532.02 343.096C531.38 342.744 530.564 342.568 529.572 342.568C528.356 342.568 527.252 342.92 526.26 343.624C525.268 344.296 524.388 345.192 523.62 346.312C522.884 347.4 522.244 348.632 521.7 350.008C521.156 351.384 520.708 352.76 520.356 354.136C520.004 355.512 519.748 356.808 519.588 358.024C519.428 359.24 519.348 360.248 519.348 361.048ZM515.028 360.376C515.028 359.096 515.14 357.688 515.364 356.152C515.62 354.584 516.004 353.016 516.516 351.448C517.028 349.848 517.684 348.296 518.484 346.792C519.284 345.288 520.228 343.96 521.316 342.808C522.404 341.656 523.668 340.728 525.108 340.024C526.548 339.32 528.148 338.968 529.908 338.968C532.884 338.968 535.156 339.976 536.724 341.992C538.292 344.008 539.076 347.288 539.076 351.832C539.076 352.888 538.964 354.152 538.74 355.624C538.548 357.096 538.228 358.648 537.78 360.28C537.332 361.88 536.724 363.48 535.956 365.08C535.22 366.648 534.308 368.056 533.22 369.304C532.132 370.552 530.868 371.576 529.428 372.376C527.988 373.144 526.324 373.528 524.436 373.528C522.644 373.528 521.14 373.192 519.924 372.52C518.74 371.848 517.78 370.92 517.044 369.736C516.308 368.552 515.78 367.16 515.46 365.56C515.172 363.96 515.028 362.232 515.028 360.376Z" fill="white"/>
<path d="M490.42 350.536C490.612 348.776 491.012 347.192 491.62 345.784C492.228 344.344 493.044 343.128 494.068 342.136C495.092 341.112 496.324 340.328 497.764 339.784C499.204 339.24 500.836 338.968 502.66 338.968C504.036 338.968 505.3 339.176 506.452 339.592C507.636 340.008 508.644 340.616 509.476 341.416C510.34 342.184 511.012 343.128 511.492 344.248C511.972 345.368 512.212 346.632 512.212 348.04C512.212 349.416 511.972 350.68 511.492 351.832C511.012 352.952 510.372 353.992 509.572 354.952C508.804 355.88 507.908 356.744 506.884 357.544C505.86 358.312 504.788 359.048 503.668 359.752C502.548 360.424 501.428 361.08 500.308 361.72C499.188 362.328 498.148 362.936 497.188 363.544C496.644 363.896 496.084 364.28 495.508 364.696C494.964 365.112 494.436 365.576 493.924 366.088C493.444 366.568 492.996 367.096 492.58 367.672C492.164 368.216 491.844 368.792 491.62 369.4H509.332L508.564 373H486.916C487.044 371.272 487.38 369.768 487.924 368.488C488.5 367.176 489.204 366.008 490.036 364.984C490.9 363.96 491.876 363.048 492.964 362.248C494.052 361.448 495.188 360.68 496.372 359.944C497.556 359.208 498.756 358.488 499.972 357.784C501.188 357.08 502.356 356.312 503.476 355.48C504.084 355 504.66 354.52 505.204 354.04C505.748 353.528 506.212 353 506.596 352.456C507.012 351.88 507.332 351.256 507.556 350.584C507.78 349.912 507.892 349.144 507.892 348.28C507.892 346.456 507.38 345.048 506.356 344.056C505.332 343.064 503.94 342.568 502.18 342.568C501.028 342.568 500.004 342.792 499.108 343.24C498.212 343.656 497.444 344.232 496.804 344.968C496.196 345.672 495.716 346.52 495.364 347.512C495.012 348.472 494.804 349.48 494.74 350.536H490.42Z" fill="white"/>
<path d="M590.932 361.096C590.932 359.688 590.692 358.392 590.212 357.208C589.764 355.992 589.108 354.936 588.244 354.04C587.412 353.112 586.404 352.392 585.22 351.88C584.184 351.432 583.062 351.18 581.854 351.124L581.332 351.112C579.892 351.112 578.483 351.384 577.107 351.928C575.764 352.472 574.692 353.336 573.892 354.52H573.796C574.148 353.272 574.564 351.944 575.044 350.536C575.464 349.304 575.982 348.158 576.598 347.098L576.868 346.648C577.636 345.464 578.564 344.488 579.652 343.72C580.772 342.952 582.132 342.568 583.731 342.568L584.068 342.573C585.72 342.626 586.936 343.072 587.716 343.912C588.548 344.776 588.98 346.072 589.012 347.8H593.332C593.268 345.016 592.468 342.856 590.932 341.32C589.492 339.85 587.49 339.069 584.925 338.978L584.404 338.968C581.044 338.968 578.34 339.784 576.292 341.416C574.276 343.048 572.66 345.288 571.444 348.136C570.996 349.128 570.596 350.2 570.244 351.352L569.989 352.222C569.743 353.098 569.524 353.992 569.332 354.904L569.152 355.819C568.984 356.737 568.852 357.664 568.756 358.6C568.628 359.815 568.563 360.984 568.563 362.104C568.563 363.736 568.756 365.256 569.14 366.664C569.556 368.072 570.18 369.288 571.012 370.312C571.844 371.303 572.9 372.088 574.18 372.664C575.328 373.168 576.648 373.452 578.139 373.515L578.788 373.528C580.558 373.528 582.145 373.261 583.55 372.727L583.828 372.616C585.238 372.016 586.451 371.205 587.467 370.184L587.668 369.976C588.724 368.856 589.524 367.544 590.068 366.04C590.644 364.504 590.932 362.856 590.932 361.096ZM584.112 361.288C584.112 359.915 583.765 358.995 583.227 358.332L583.117 358.203L583.104 358.189L583.093 358.175C582.627 357.639 581.861 357.212 580.372 357.212C579.465 357.212 578.776 357.378 578.243 357.636C577.626 357.934 577.129 358.323 576.725 358.809C576.309 359.307 575.98 359.907 575.75 360.642L575.747 360.652L575.743 360.663C575.511 361.382 575.384 362.194 575.384 363.112L575.389 363.402C575.431 364.73 575.766 365.667 576.263 366.352L576.372 366.494C576.784 367.009 577.535 367.476 579.172 367.476V369.976C577.162 369.976 575.644 369.413 574.618 368.288L574.42 368.056C573.46 366.856 572.95 365.332 572.89 363.485L572.884 363.112C572.884 361.96 573.044 360.888 573.364 359.896C573.644 359 574.046 358.202 574.571 357.502L574.804 357.208C575.364 356.536 576.034 355.987 576.814 355.56L577.156 355.384C578.084 354.936 579.156 354.712 580.372 354.712L580.744 354.719C582.578 354.79 583.989 355.396 584.979 356.536C586.067 357.752 586.612 359.336 586.612 361.288L586.604 361.706C586.57 362.679 586.412 363.628 586.132 364.552C585.844 365.576 585.38 366.504 584.74 367.336C584.132 368.136 583.364 368.776 582.436 369.256C581.508 369.736 580.42 369.976 579.172 369.976V367.476C580.097 367.476 580.777 367.299 581.287 367.035C581.899 366.719 582.375 366.316 582.749 365.823L582.759 365.812C583.202 365.236 583.523 364.596 583.726 363.875L583.732 363.851L583.739 363.827C583.987 363.01 584.112 362.166 584.112 361.288ZM583.731 345.068C582.552 345.068 581.71 345.344 581.078 345.773C580.278 346.341 579.577 347.07 578.979 347.987C578.793 348.287 578.617 348.598 578.449 348.917C579.395 348.714 580.357 348.612 581.332 348.612C583.05 348.612 584.687 348.926 586.212 349.585C586.325 349.634 586.436 349.684 586.547 349.736L586.513 347.847C586.49 346.644 586.229 346.047 586.007 345.754L585.915 345.646L585.884 345.613C585.716 345.433 585.203 345.068 583.731 345.068ZM593.432 361.096C593.432 363.133 593.097 365.081 592.408 366.917C591.753 368.719 590.781 370.32 589.487 371.691C588.18 373.078 586.608 374.149 584.807 374.916L584.795 374.922L584.782 374.927C582.957 375.681 580.944 376.028 578.788 376.028C576.886 376.028 575.104 375.737 573.494 375.088L573.175 374.953L573.164 374.948L573.154 374.943C571.66 374.271 570.362 373.347 569.305 372.159L569.097 371.919L569.084 371.903L569.071 371.889C568.009 370.581 567.241 369.061 566.742 367.372L566.735 367.347L566.728 367.322C566.279 365.676 566.063 363.932 566.063 362.104C566.063 360.889 566.133 359.633 566.27 358.338C566.406 357.006 566.612 355.689 566.886 354.389C567.157 353.102 567.478 351.846 567.853 350.621C568.232 349.378 568.669 348.206 569.165 347.107C570.508 343.978 572.342 341.397 574.719 339.473L574.727 339.467L574.733 339.461C577.336 337.387 580.641 336.468 584.404 336.468C587.692 336.468 590.588 337.396 592.718 339.57H592.717C594.813 341.677 595.757 344.513 595.831 347.742L595.89 350.3H587.602C588.508 350.847 589.325 351.516 590.044 352.305C591.14 353.441 591.965 354.772 592.527 356.269H592.528C593.141 357.78 593.432 359.399 593.432 361.096Z" fill="black"/>
<path d="M565.556 348.04C565.556 346.808 565.372 345.686 565.005 344.675L564.836 344.248C564.416 343.268 563.849 342.422 563.135 341.712L562.82 341.416C561.988 340.616 560.98 340.008 559.796 339.592C558.644 339.176 557.38 338.968 556.004 338.968C554.18 338.968 552.548 339.24 551.108 339.784L550.578 339.999C549.364 340.528 548.308 341.24 547.412 342.136L547.038 342.519C546.188 343.436 545.496 344.524 544.964 345.784L544.746 346.32C544.26 347.591 543.932 348.996 543.764 350.536H548.084L548.115 350.143C548.203 349.229 548.4 348.352 548.708 347.512C549.06 346.52 549.54 345.672 550.148 344.968C550.788 344.232 551.556 343.656 552.452 343.24C553.348 342.792 554.372 342.568 555.524 342.568L555.85 342.574C557.456 342.632 558.74 343.126 559.7 344.056C560.724 345.048 561.236 346.456 561.236 348.28L561.23 348.6C561.206 349.335 561.096 349.996 560.9 350.584L560.812 350.834C560.595 351.411 560.304 351.952 559.94 352.456C559.556 353 559.092 353.528 558.548 354.04C558.004 354.52 557.428 355 556.82 355.48C555.7 356.312 554.532 357.08 553.316 357.784L552.407 358.315C551.501 358.849 550.604 359.392 549.716 359.944L548.837 360.502C547.967 361.066 547.124 361.648 546.308 362.248L545.905 362.554C544.978 363.278 544.136 364.088 543.38 364.984C542.548 366.008 541.844 367.176 541.268 368.488C540.724 369.768 540.388 371.272 540.26 373H561.908L562.676 369.4H544.964C545.188 368.792 545.508 368.216 545.924 367.672C546.34 367.096 546.788 366.568 547.268 366.088C547.779 365.576 548.308 365.112 548.852 364.696C549.428 364.28 549.988 363.896 550.532 363.544C551.252 363.088 552.017 362.632 552.827 362.176L553.652 361.72C554.772 361.08 555.892 360.424 557.012 359.752C558.132 359.048 559.204 358.312 560.228 357.544C561.252 356.744 562.148 355.88 562.916 354.952C563.616 354.112 564.193 353.211 564.648 352.248L564.836 351.832C565.256 350.824 565.492 349.73 565.545 348.551L565.556 348.04ZM568.042 348.663C567.977 350.109 567.686 351.493 567.144 352.794L567.139 352.806L567.134 352.816C566.556 354.164 565.787 355.411 564.836 356.552C563.946 357.627 562.92 358.613 561.768 359.514L561.748 359.529L561.728 359.544C560.647 360.354 559.519 361.129 558.343 361.868L558.32 361.883L558.298 361.896C557.163 362.576 556.028 363.242 554.893 363.891L554.869 363.904L554.845 363.917C553.768 364.501 552.777 365.081 551.869 365.655C551.383 365.971 550.879 366.317 550.355 366.694C550.268 366.761 550.181 366.83 550.095 366.9H565.766L563.931 375.5H537.568L537.767 372.815C537.91 370.879 538.293 369.095 538.967 367.51L538.973 367.496L538.979 367.483C539.637 365.984 540.455 364.619 541.439 363.407L541.454 363.39L541.47 363.372C542.462 362.196 543.582 361.149 544.827 360.233C545.969 359.394 547.159 358.589 548.396 357.82C549.603 357.07 550.825 356.337 552.063 355.62C553.187 354.969 554.265 354.26 555.3 353.493C555.854 353.055 556.376 352.619 556.868 352.186C557.288 351.786 557.628 351.396 557.897 351.015L557.905 351.003L557.913 350.992C558.181 350.621 558.385 350.224 558.528 349.793C558.651 349.425 558.736 348.932 558.736 348.28C558.736 347.103 558.457 346.432 558.112 346.016L557.961 345.852C557.507 345.412 556.796 345.068 555.524 345.068C554.702 345.068 554.07 345.226 553.57 345.476L553.538 345.492L553.505 345.508C552.924 345.778 552.44 346.141 552.034 346.608C551.656 347.048 551.325 347.614 551.064 348.348L551.06 348.36L551.056 348.373C550.79 349.097 550.629 349.866 550.579 350.688L550.438 353.036H540.977L541.278 350.265C541.493 348.294 541.948 346.462 542.669 344.793C543.389 343.094 544.375 341.606 545.645 340.368L545.889 340.13C547.128 338.957 548.583 338.065 550.225 337.445C551.994 336.777 553.933 336.468 556.004 336.468C557.634 336.468 559.19 336.715 560.646 337.24C562.117 337.76 563.423 338.537 564.524 339.588C565.584 340.541 566.414 341.686 567.015 342.995L567.134 343.264C567.766 344.739 568.056 346.346 568.056 348.04L568.042 348.663Z" fill="black"/>
<path d="M539.076 351.832C539.076 347.43 538.341 344.214 536.869 342.185L536.725 341.992C535.255 340.102 533.165 339.098 530.458 338.979L529.908 338.968C528.148 338.968 526.548 339.32 525.108 340.024L524.576 340.299C523.355 340.964 522.268 341.8 521.316 342.808L520.915 343.248C519.994 344.295 519.184 345.476 518.484 346.792L518.19 347.358C517.522 348.685 516.965 350.048 516.517 351.448L516.33 352.036C515.91 353.408 515.588 354.78 515.364 356.152C515.14 357.688 515.028 359.096 515.028 360.376L515.035 361.066C515.067 362.662 515.208 364.16 515.46 365.56C515.78 367.16 516.308 368.552 517.044 369.736C517.78 370.92 518.74 371.848 519.924 372.52C521.064 373.15 522.457 373.485 524.104 373.524L524.437 373.528C526.324 373.528 527.988 373.144 529.428 372.376C530.868 371.576 532.132 370.552 533.22 369.304C534.308 368.056 535.22 366.648 535.956 365.08C536.724 363.48 537.332 361.88 537.78 360.28C538.172 358.852 538.466 357.485 538.662 356.18L538.74 355.624C538.936 354.336 539.047 353.207 539.071 352.237L539.076 351.832ZM532.256 350.868L532.258 350.816C532.279 350.319 532.277 349.82 532.251 349.322L532.217 348.823L532.213 348.771L532.21 348.72C532.191 348.276 532.139 347.841 532.052 347.415L531.953 346.991L531.94 346.941L531.929 346.891C531.855 346.553 531.753 346.287 531.636 346.076L531.514 345.882L531.494 345.854L531.476 345.827C531.375 345.676 531.251 345.547 531.084 345.437L530.902 345.332L530.858 345.311L530.815 345.286C530.653 345.197 530.287 345.068 529.572 345.068C528.875 345.068 528.276 345.259 527.707 345.663L527.685 345.679L527.662 345.693C526.965 346.166 526.302 346.823 525.69 347.713L525.461 348.064C524.931 348.902 524.45 349.853 524.025 350.927C523.518 352.209 523.103 353.486 522.778 354.756C522.447 356.05 522.212 357.247 522.066 358.351C521.914 359.509 521.848 360.398 521.848 361.048C521.848 363.537 522.233 365.271 522.814 366.423C523.03 366.838 523.268 367.059 523.513 367.196C523.773 367.342 524.19 367.476 524.868 367.476V369.976L524.497 369.967C522.798 369.879 521.552 369.179 520.759 367.866L520.596 367.576C519.764 365.944 519.348 363.768 519.348 361.048C519.348 360.448 519.393 359.731 519.483 358.897L519.588 358.024C519.708 357.112 519.882 356.155 520.11 355.153L520.356 354.136C520.664 352.932 521.046 351.728 521.501 350.524L521.7 350.008C522.244 348.632 522.884 347.399 523.62 346.312C524.388 345.192 525.268 344.296 526.26 343.624C527.252 342.92 528.356 342.568 529.572 342.568L529.936 342.576C530.765 342.615 531.46 342.788 532.021 343.096C532.66 343.416 533.172 343.864 533.556 344.44C533.94 344.984 534.212 345.624 534.372 346.36C534.564 347.096 534.676 347.848 534.708 348.616C534.772 349.384 534.788 350.152 534.756 350.92V352.984L534.741 353.398C534.711 353.866 534.637 354.496 534.517 355.288C534.389 356.312 534.164 357.464 533.844 358.744C533.556 359.992 533.156 361.288 532.645 362.632C532.165 363.944 531.556 365.144 530.82 366.232L530.538 366.631C529.866 367.541 529.096 368.304 528.229 368.92L528.041 369.048C527.096 369.667 526.038 369.976 524.868 369.976V367.476C525.612 367.476 526.224 367.277 526.781 366.881C527.51 366.364 528.168 365.691 528.749 364.831C529.364 363.922 529.881 362.906 530.296 361.773L530.308 361.742C530.784 360.492 531.149 359.306 531.408 358.182L531.413 358.16L531.419 358.138C531.721 356.93 531.922 355.879 532.035 354.978L532.039 354.945L532.044 354.913C532.202 353.869 532.256 353.262 532.256 352.984V350.868ZM541.57 352.298C541.543 353.405 541.418 354.643 541.212 356L541.211 355.999C541.002 357.584 540.661 359.232 540.191 360.941L540.188 360.954C539.698 362.703 539.036 364.439 538.209 366.161C537.38 367.922 536.347 369.522 535.104 370.947C533.827 372.412 532.337 373.62 530.643 374.562L530.623 374.572L530.604 374.582C528.749 375.571 526.67 376.028 524.437 376.028C522.341 376.028 520.393 375.635 518.715 374.708L518.702 374.701L518.69 374.694C517.134 373.811 515.872 372.585 514.921 371.056C514.117 369.762 513.538 368.313 513.159 366.734L513.009 366.05L513.004 366.026L513 366.003C512.682 364.238 512.528 362.36 512.528 360.376C512.528 358.953 512.653 357.422 512.891 355.791L512.894 355.771L512.896 355.749C513.174 354.05 513.589 352.357 514.14 350.672C514.697 348.933 515.411 347.248 516.277 345.618C517.175 343.931 518.246 342.418 519.499 341.092C520.795 339.719 522.303 338.613 524.01 337.778C525.824 336.891 527.805 336.468 529.908 336.468C533.512 336.468 536.574 337.727 538.697 340.457C540.785 343.141 541.576 347.117 541.576 351.832L541.57 352.298Z" fill="black"/>
<path d="M512.212 348.04C512.212 346.808 512.029 345.686 511.661 344.675L511.492 344.248C511.072 343.268 510.505 342.422 509.791 341.712L509.477 341.416C508.645 340.616 507.636 340.008 506.452 339.592C505.3 339.176 504.036 338.968 502.66 338.968C500.836 338.968 499.205 339.24 497.765 339.784L497.234 339.999C496.02 340.528 494.964 341.24 494.068 342.136L493.694 342.519C492.844 343.436 492.152 344.524 491.62 345.784L491.402 346.32C490.916 347.591 490.588 348.996 490.42 350.536H494.74L494.771 350.143C494.859 349.229 495.056 348.352 495.364 347.512C495.716 346.52 496.197 345.672 496.805 344.968C497.445 344.232 498.213 343.656 499.108 343.24C500.004 342.792 501.029 342.568 502.181 342.568L502.506 342.574C504.113 342.632 505.396 343.126 506.356 344.056C507.38 345.048 507.893 346.456 507.893 348.28L507.887 348.6C507.862 349.335 507.753 349.996 507.557 350.584L507.468 350.834C507.251 351.411 506.961 351.952 506.597 352.456C506.213 353 505.748 353.528 505.204 354.04C504.66 354.52 504.085 355 503.477 355.48C502.357 356.312 501.189 357.08 499.973 357.784L499.063 358.315C498.157 358.849 497.26 359.392 496.372 359.944L495.493 360.502C494.623 361.066 493.78 361.648 492.964 362.248L492.562 362.554C491.634 363.278 490.792 364.088 490.036 364.984C489.204 366.008 488.5 367.176 487.924 368.488C487.38 369.768 487.044 371.272 486.916 373H508.564L509.332 369.4H491.62C491.844 368.792 492.164 368.216 492.58 367.672C492.996 367.096 493.444 366.568 493.924 366.088C494.308 365.704 494.701 365.347 495.104 365.017L495.508 364.696C496.084 364.28 496.644 363.896 497.188 363.544C497.908 363.088 498.673 362.632 499.483 362.176L500.309 361.72C501.428 361.08 502.548 360.424 503.668 359.752C504.788 359.048 505.86 358.312 506.884 357.544C507.908 356.744 508.804 355.88 509.572 354.952C510.272 354.112 510.85 353.211 511.305 352.248L511.492 351.832C511.912 350.824 512.149 349.73 512.201 348.551L512.212 348.04ZM514.698 348.663C514.634 350.109 514.342 351.493 513.8 352.794L513.795 352.806L513.79 352.816C513.212 354.164 512.443 355.411 511.492 356.552C510.602 357.627 509.576 358.613 508.424 359.514L508.404 359.529L508.384 359.544C507.303 360.354 506.175 361.129 504.999 361.868L504.977 361.883L504.954 361.896C503.819 362.576 502.684 363.242 501.549 363.891L501.525 363.904L501.501 363.917C500.424 364.501 499.433 365.081 498.525 365.655C498.039 365.971 497.535 366.317 497.012 366.694C496.925 366.761 496.838 366.83 496.751 366.9H512.422L510.587 375.5H484.225L484.423 372.815C484.566 370.879 484.949 369.095 485.623 367.51L485.629 367.496L485.635 367.483C486.293 365.984 487.111 364.619 488.096 363.407L488.11 363.39L488.126 363.372C489.118 362.196 490.238 361.149 491.483 360.233C492.625 359.394 493.816 358.589 495.053 357.82C496.259 357.07 497.481 356.337 498.72 355.62C499.844 354.969 500.922 354.26 501.956 353.493C502.51 353.055 503.033 352.619 503.524 352.186C503.945 351.786 504.285 351.396 504.554 351.015L504.562 351.003L504.569 350.992C504.837 350.621 505.041 350.224 505.185 349.793C505.307 349.425 505.393 348.932 505.393 348.28C505.393 347.103 505.114 346.432 504.769 346.016L504.617 345.852C504.164 345.412 503.452 345.068 502.181 345.068C501.359 345.068 500.727 345.226 500.227 345.476L500.194 345.492L500.161 345.508C499.58 345.778 499.097 346.141 498.69 346.608C498.313 347.048 497.981 347.614 497.721 348.348L497.716 348.36L497.712 348.373C497.446 349.097 497.285 349.866 497.235 350.688L497.094 353.036H487.633L487.935 350.265C488.15 348.294 488.604 346.462 489.325 344.793C490.045 343.094 491.031 341.606 492.301 340.368L492.545 340.13C493.784 338.957 495.24 338.065 496.881 337.445C498.65 336.777 500.589 336.468 502.66 336.468C504.29 336.468 505.846 336.715 507.302 337.24C508.773 337.76 510.079 338.537 511.181 339.588C512.241 340.541 513.07 341.686 513.671 342.995L513.79 343.264C514.422 344.739 514.712 346.346 514.712 348.04L514.698 348.663Z" fill="black"/>
<path d="M473 358V362H53V358H473Z" fill="#0B94E3"/>
<path d="M1025 358C1026.1 358 1027 358.895 1027 360C1027 361.105 1026.1 362 1025 362H609C607.895 362 607 361.105 607 360C607 358.895 607.895 358 609 358H1025Z" fill="#FF5CB9"/>
<path d="M214.356 333.961L194 317.578V198.919L207.901 185.514L220.313 204.877L266.982 229.701L280.387 303.18L214.356 333.961Z" fill="#0B94E3"/>
<path d="M263.011 220.268L235.704 206.366V117L263.011 129.908V220.268Z" fill="#0B94E3"/>
<path d="M283.366 294.243L273.933 233.672L315.637 155.229L332.518 162.676L335 178.563L283.366 294.243Z" fill="#0B94E3"/>
<path d="M297.019 179.275L269.216 228.708V129.412L297.019 140.963V179.275Z" fill="#0B94E3"/>
<path d="M230.74 141.327L218.328 151.753L214.356 183.031L223.789 199.912L230.74 203.884V141.327Z" fill="#0B94E3"/>
<path d="M315.141 238.637C318.616 231.19 329.34 203.983 330.532 202.394V292.257L326.56 295.236L317.127 284.313L315.141 238.637Z" fill="#0B94E3"/>
<path d="M322.588 297.718C320.106 294.905 313.155 286.299 313.155 286.299L308.687 292.257C308.687 292.257 292.799 301.69 289.324 303.18C294.289 304.669 307.197 304.836 314.148 302.187C317.633 300.858 322.588 297.718 322.588 297.718Z" fill="#0B94E3"/>
<path d="M203.433 178.563C200.358 176.001 199.461 164.662 203.433 163.172C208.219 161.377 211.873 167.641 212.37 174.095C212.866 180.549 206.412 181.046 203.433 178.563Z" fill="#0B94E3"/>
<path d="M173.644 333.961L194 317.578V198.919L180.099 185.514L167.687 204.877L121.018 229.701L107.613 303.18L173.644 333.961Z" fill="#0B94E3"/>
<path d="M124.989 220.268L152.296 206.366V117L124.989 129.908V220.268Z" fill="#0B94E3"/>
<path d="M104.634 294.243L114.067 233.672L72.3627 155.229L55.4824 162.676L53 178.563L104.634 294.243Z" fill="#0B94E3"/>
<path d="M90.9809 179.275L118.784 228.708V129.412L90.9809 140.963V179.275Z" fill="#0B94E3"/>
<path d="M157.26 141.327L169.672 151.753L173.644 183.031L164.211 199.912L157.26 203.884V141.327Z" fill="#0B94E3"/>
<path d="M72.859 238.637C69.3836 231.19 58.6598 203.983 57.4682 202.394V292.257L61.44 295.236L70.8731 284.313L72.859 238.637Z" fill="#0B94E3"/>
<path d="M65.4118 297.718C67.8942 294.905 74.8449 286.299 74.8449 286.299L79.3132 292.257C79.3132 292.257 95.2006 301.69 98.6759 303.18C93.7111 304.669 80.8027 304.836 73.852 302.187C70.367 300.858 65.4118 297.718 65.4118 297.718Z" fill="#0B94E3"/>
<path d="M184.567 178.563C187.642 176.001 188.539 164.662 184.567 163.172C179.781 161.377 176.127 167.641 175.63 174.095C175.134 180.549 181.588 181.046 184.567 178.563Z" fill="#0B94E3"/>
<path d="M183.004 291.296H183.025L186.516 288.075H188.757L185.062 291.242L187.398 295.724L191.909 288.075H193.644L194.926 295.767H193.245L192.998 294.054H190.121L189.151 295.767H185.514L183.758 292.309L182.584 293.332L182.077 295.767H180.387L181.98 288.075H183.672L183.004 291.296ZM200.986 293.548H201.008L202.106 288.075H203.658L202.031 295.767H200.34L198.229 290.369H198.207L197.108 295.767H195.535L197.151 288.075H198.896L200.986 293.548ZM205.212 295.767H203.521L205.137 288.075H206.839L205.212 295.767ZM190.789 292.793H192.847L192.47 289.734H192.448L190.789 292.793ZM192.636 239.873H168.505L166.092 251.249H187.189L185.396 259.66H164.368L160.024 279.999H149.27L159.611 230.772H194.635L192.636 239.873ZM236.125 239.873H209.374L207.168 250.422H231.919L230.127 258.833H205.375L202.824 270.898H229.988L228.059 279.999H190.139L200.411 230.772H237.986L236.125 239.873Z" fill="#BBEBFF"/>
<path d="M862.343 137.91C890.666 129.49 925.879 122.984 940.423 124.132C954.922 125.276 967.298 127.345 978.697 137.91C993.449 151.582 1016.66 170.61 1019.39 196.424C1020.24 197.948 1021.15 199.781 1021.95 201.829C1024.63 208.676 1027.19 224.411 1026.54 233.597C1025.44 249.207 1021.73 260.828 1014.68 271.871C1008.74 281.163 997.871 291.121 991.159 295.828C991.957 299.439 993.044 303.211 994.007 307.467C995.412 313.679 997.452 320.48 998.982 326.603C1000.51 332.727 997.834 334.641 994.007 334.641H967.98C965.301 334.642 961.642 335.142 960.142 332.642C958.642 330.143 960.07 327.114 960.708 324.308C959.432 322.266 956.498 317.035 954.967 312.442C953.053 306.701 949.226 292.157 949.991 284.502C950.057 283.846 950.144 283.079 950.247 282.223C935.827 282.588 916.376 280.674 899.62 277.432C898.554 285.435 898.024 293.008 897.938 294.836C897.642 301.142 900.093 313.896 900.617 316.269C901.142 318.643 904.642 325.103 904.642 331.642C904.641 337.087 902.969 338.469 899.142 338.469H874.208C869.615 338.469 866.673 339.321 865.142 336.642C862.08 331.285 863.491 321.247 863.491 318.949C863.491 316.653 858.516 297.515 859.664 279.526C859.799 277.411 859.973 275.295 860.178 273.193C857.409 278.345 854.392 283.995 852.392 288.329C848.87 295.959 843.588 307.084 843.588 309.764C843.588 313.987 844.343 317.801 844.57 321.245C844.925 326.621 842.926 328.006 839.378 328.006H812.989C808.235 328.006 804.548 329.055 804.548 321.245C804.548 311.055 807.68 307.452 808.021 303.43C809.267 288.685 811.863 270.374 821.011 257.567C821.981 257.683 822.922 257.825 823.831 257.998C830.112 259.194 838.741 262.487 848.805 266.509C852.534 267.999 856.429 269.572 860.389 271.128C860.589 269.278 860.813 267.443 861.059 265.633C847.291 260.19 834.048 254.489 824.834 252.734C816.796 251.203 807.227 251.968 798.807 251.203C794.252 250.789 790.148 249.542 786.87 248.386C788.073 245.497 789.291 243.236 790.361 241.523C790.985 240.526 791.408 240.452 791.768 240.432C792.479 240.391 793.572 240.665 795.516 241.442C799.841 243.173 804.739 243.65 809.674 241.855C811.064 241.35 811.782 239.812 811.276 238.422C810.771 237.031 809.233 236.315 807.843 236.82C804.357 238.088 800.834 237.799 797.505 236.468C795.621 235.714 793.503 234.965 791.461 235.082C789.067 235.219 787.193 236.485 785.818 238.683C784.253 241.188 782.482 244.601 780.848 249.089C780.412 250.206 779.972 251.51 779.563 252.958C779.507 253.14 779.45 253.324 779.396 253.509C779.365 253.612 779.343 253.717 779.325 253.82C777.525 260.642 776.478 270.232 779.287 278.378C783.115 289.477 790.823 294.409 793.448 295.984C795.362 297.132 798.071 296.367 799.189 299.429C800.307 302.49 798.424 303.256 796.128 304.787C793.407 306.601 791.535 310.143 791.535 314.642C791.535 316.905 792.641 319.643 791.142 321.642C789.642 323.642 786.787 323.273 784.263 322.011C778.009 318.884 760.915 304.787 755.557 295.454C752.579 291.274 749.877 284.047 748.667 277.995C745.988 264.599 746.754 252.734 749.433 242.4C751.196 235.6 756.236 226.115 757.471 223.645C759.002 220.584 761.298 216.755 762.446 211.015C763.122 207.636 764.36 193.408 767.039 181.926C770.71 166.195 780.435 155.389 793.065 149.775C794.393 149.185 795.793 148.638 797.256 148.132C797.322 147.326 797.409 146.531 797.51 145.764C797.898 142.819 798.592 139.64 799.627 137.665C800.608 135.793 802.921 135.07 804.793 136.051C806.665 137.032 807.389 139.345 806.408 141.218C806.08 141.845 805.592 143.522 805.228 145.87C806.502 145.574 807.805 145.299 809.133 145.041C809.218 144.77 809.302 144.502 809.39 144.238C810.327 141.419 811.608 138.43 812.997 136.685C814.314 135.032 816.721 134.759 818.375 136.075C820.028 137.392 820.303 139.799 818.986 141.453C818.708 141.803 818.289 142.555 817.814 143.626C825.888 142.53 834.479 141.888 842.822 141.355C845.878 141.16 855.033 140.083 862.343 137.91ZM915.541 285.41C926.408 286.822 937.373 287.632 946.77 287.624C945.753 293.647 944.701 299.852 943.867 304.021C942.792 309.395 941.953 325.455 942.336 327.369C942.719 329.283 941.953 330.813 938.892 330.813C935.83 330.813 920.521 330.431 917.458 330.813C914.396 331.196 912.865 330.431 912.865 327.369C912.865 324.307 914.299 318.939 914.013 314.738C913.342 304.896 913.979 294.661 915.541 285.41ZM1012.52 241.638C1008.9 251.165 1004.18 259.023 998.982 264.217C998.451 264.748 997.869 265.309 997.231 265.894C996.186 267.822 995.097 269.804 994.007 271.871C991.044 277.485 990.001 282.237 990.01 286.804C992.921 284.361 996.615 280.966 998.6 278.761C1002.04 274.933 1009.32 266.13 1011.23 260.006C1013.02 254.295 1013.23 246.845 1012.52 241.638ZM847.507 164.584C844.305 163.824 840.587 163.728 836.998 164.361C828.866 165.796 823.455 174.099 821.086 183.573C820.728 185.008 821.6 186.462 823.035 186.821C824.47 187.18 825.925 186.308 826.284 184.873C828.508 175.976 833.048 170.499 837.93 169.638C840.848 169.123 843.827 169.217 846.271 169.797C848.807 170.399 850.324 171.408 850.927 172.312C851.937 173.828 852.454 175.142 853.29 176.88C854.108 178.58 855.125 180.412 857.003 182.29C859.031 184.318 863.032 187.519 865.221 189.343C866.464 190.379 867.896 191.704 868.724 193.025C869.128 193.671 869.278 194.148 869.303 194.456C869.321 194.678 869.288 194.886 869.053 195.18C868.849 195.434 868.337 195.803 867.134 196.228C865.921 196.657 864.621 196.954 862.926 197.433C859.947 198.273 855.701 199.664 853.79 203.758C853.093 205.252 853.182 206.938 853.332 208.188C853.488 209.484 853.821 211.017 854.053 212.267C854.586 215.149 854.678 217.141 853.904 218.468C853.828 218.598 853.513 218.982 852.697 219.496C851.921 219.985 850.852 220.491 849.517 220.946C846.847 221.857 843.313 222.497 839.378 222.497C834.534 222.497 829.926 219.237 828.038 217.726C826.883 216.802 825.196 216.989 824.271 218.144C823.348 219.3 823.535 220.986 824.69 221.91C826.631 223.462 832.523 227.855 839.378 227.855C843.862 227.855 847.984 227.13 851.246 226.017C852.876 225.462 854.343 224.791 855.553 224.029C856.722 223.293 857.843 222.35 858.533 221.168C860.438 217.902 859.815 213.96 859.321 211.293C859.039 209.769 858.781 208.622 858.652 207.55C858.592 207.045 858.576 206.664 858.593 206.382C858.607 206.145 858.64 206.042 858.646 206.024C859.415 204.377 861.255 203.472 864.381 202.59C865.737 202.207 867.496 201.785 868.921 201.281C870.355 200.774 872.063 199.994 873.237 198.527C874.341 197.147 874.768 195.583 874.644 194.027C874.525 192.557 873.93 191.245 873.264 190.182C871.949 188.083 869.936 186.298 868.65 185.226C866.247 183.223 862.592 180.3 860.792 178.501C859.515 177.223 858.809 175.992 858.119 174.558C857.448 173.162 856.671 171.269 855.386 169.341C853.692 166.801 850.615 165.321 847.507 164.584ZM795.745 200.298C792.259 200.298 791.152 203.743 791.152 207.953C791.153 212.561 794.215 214.842 797.276 213.694C798.754 213.14 801.487 210.631 799.956 204.891C799.547 203.355 799.19 200.298 795.745 200.298Z" fill="#FF5CB9"/>
<path d="M925.473 243.643C926.024 243.643 926.525 243.719 926.977 243.872C927.428 244.018 927.811 244.24 928.125 244.538C928.439 244.837 928.68 245.204 928.849 245.641C929.025 246.077 929.112 246.582 929.112 247.156C929.112 247.83 929.013 248.473 928.814 249.085C928.615 249.697 928.324 250.237 927.941 250.704C927.566 251.171 927.1 251.542 926.541 251.817C925.99 252.085 925.354 252.22 924.635 252.22C923.471 252.22 922.572 251.91 921.937 251.29C921.309 250.67 920.995 249.774 920.995 248.603C920.995 247.937 921.098 247.305 921.305 246.708C921.511 246.111 921.806 245.586 922.188 245.135C922.579 244.675 923.05 244.312 923.602 244.044C924.16 243.776 924.784 243.643 925.473 243.643ZM931.918 248.58C931.903 248.649 931.883 248.729 931.86 248.82C931.845 248.905 931.826 248.997 931.803 249.097C931.787 249.196 931.772 249.292 931.757 249.384C931.749 249.468 931.745 249.545 931.745 249.613C931.745 249.713 931.765 249.827 931.803 249.957C931.849 250.087 931.929 250.21 932.044 250.325C932.159 250.432 932.316 250.524 932.515 250.601C932.714 250.677 932.97 250.716 933.284 250.716C933.652 250.716 933.95 250.669 934.18 250.577C934.409 250.478 934.594 250.344 934.731 250.176C934.877 250 934.988 249.785 935.064 249.532C935.149 249.28 935.225 249 935.294 248.694L936.315 243.838H938.118L937.119 248.603C936.997 249.192 936.84 249.712 936.648 250.164C936.465 250.616 936.22 250.995 935.914 251.301C935.608 251.599 935.232 251.829 934.788 251.99C934.344 252.143 933.804 252.22 933.169 252.22C932.771 252.22 932.377 252.177 931.986 252.093C931.604 252.009 931.259 251.875 930.953 251.691C930.655 251.5 930.41 251.251 930.219 250.945C930.035 250.632 929.943 250.248 929.943 249.797C929.943 249.59 929.962 249.387 930 249.188C930.038 248.982 930.077 248.779 930.115 248.58L931.114 243.838H932.917L931.918 248.58ZM920.726 245.284L915.202 250.521H919.83L919.531 252.036H912.642L912.952 250.543L918.417 245.354H914.215L914.548 243.838H921.024L920.726 245.284ZM925.484 245.158C925.025 245.158 924.623 245.265 924.278 245.48C923.942 245.686 923.662 245.958 923.44 246.295C923.226 246.624 923.065 246.995 922.958 247.408C922.851 247.814 922.797 248.212 922.797 248.603C922.797 248.886 922.832 249.154 922.9 249.406C922.977 249.659 923.088 249.885 923.233 250.084C923.386 250.275 923.578 250.428 923.808 250.543C924.045 250.658 924.328 250.716 924.657 250.716C925.101 250.716 925.488 250.612 925.817 250.405C926.146 250.191 926.422 249.919 926.644 249.59C926.865 249.253 927.031 248.882 927.138 248.477C927.253 248.071 927.31 247.673 927.31 247.282C927.31 246.991 927.276 246.719 927.207 246.467C927.146 246.207 927.042 245.98 926.896 245.789C926.751 245.598 926.563 245.445 926.334 245.33C926.104 245.215 925.821 245.158 925.484 245.158ZM925.062 208.52H944.972L948.968 189.643H959.854L949.45 238.833H938.564L943.043 217.613H923.133L918.654 238.833H907.838L918.172 189.643H929.058L925.062 208.52ZM983.98 189.643C986.461 189.643 988.735 189.895 990.802 190.4C992.914 190.86 994.729 191.64 996.244 192.742C997.76 193.844 998.931 195.314 999.758 197.151C1000.63 198.989 1001.07 201.263 1001.07 203.973C1001.07 206.682 1000.54 209.117 999.482 211.275C998.472 213.388 997.07 215.179 995.279 216.648C993.534 218.118 991.513 219.244 989.217 220.024C986.92 220.805 984.486 221.196 981.914 221.196H968.549L964.828 238.833H954.081L964.277 189.643H983.98ZM894.542 189.642C897.022 189.642 899.296 189.895 901.362 190.4C903.475 190.86 905.289 191.64 906.805 192.742C908.32 193.844 909.492 195.314 910.318 197.151C911.191 198.988 911.627 201.262 911.627 203.972C911.627 206.681 911.099 209.116 910.043 211.274C909.033 213.387 907.631 215.179 905.84 216.648C904.095 218.118 902.074 219.244 899.777 220.024C897.481 220.805 895.047 221.195 892.475 221.195H879.109L875.389 238.832H864.642L874.838 189.642H894.542ZM970.34 212.791H981.363C984.119 212.791 986.277 212.101 987.839 210.724C989.446 209.3 990.25 207.118 990.25 204.179C990.25 202.939 990.021 201.928 989.562 201.147C989.148 200.321 988.574 199.7 987.839 199.287C987.104 198.828 986.277 198.507 985.358 198.323C984.486 198.14 983.567 198.048 982.603 198.048H973.371L970.34 212.791ZM880.9 212.79H891.924C894.679 212.79 896.838 212.101 898.399 210.724C900.007 209.3 900.811 207.118 900.811 204.179C900.811 202.939 900.581 201.928 900.122 201.147C899.709 200.321 899.134 199.7 898.399 199.287C897.665 198.828 896.838 198.507 895.92 198.323C895.047 198.14 894.128 198.047 893.164 198.047H883.932L880.9 212.79Z" fill="#FFC3EA"/>
<path d="M359.549 124H410.694L408.844 132.688H368.037L362.922 157.34H398.833L396.983 166.028H361.072L353.672 201.54H343.334L359.549 124Z" fill="black"/>
<path d="M421.165 124H474.705L472.964 132.688H429.762L424.538 157.34H464.802L463.061 166.028H422.688L417.03 192.852H460.776L458.817 201.54H404.733L421.165 124Z" fill="black"/>
<path d="M523.154 149.478L504.472 163.239L523.154 177.001L521.279 179.537L501.813 165.198L482.346 179.537L480.472 177.001L499.153 163.239L480.472 149.478L482.346 146.942L501.813 161.28L521.279 146.942L523.154 149.478Z" fill="black"/>
<path d="M550.762 161.141H574.159C579.817 161.141 584.098 159.693 587 156.797C589.902 153.829 591.352 150.028 591.352 145.394C591.352 143.005 590.99 141.014 590.264 139.421C589.611 137.756 588.705 136.453 587.544 135.512C586.383 134.498 585.041 133.774 583.517 133.34C581.994 132.905 580.362 132.688 578.62 132.688H556.747L550.762 161.141ZM548.042 124H578.62C586.093 124 591.788 125.774 595.705 129.321C599.695 132.869 601.69 138.227 601.69 145.394C601.69 147.783 601.219 150.426 600.276 153.322C599.333 156.145 597.7 158.788 595.379 161.25C593.13 163.711 590.083 165.775 586.238 167.44C582.465 169.033 577.714 169.829 571.982 169.829H548.912L542.165 201.54H531.827L548.042 124Z" fill="black"/>
<path d="M614.361 124H624.808L617.735 157.34H658.434L665.398 124H675.736L659.413 201.54H649.075L656.584 166.028H615.885L608.376 201.54H598.038L614.361 124Z" fill="black"/>
<path d="M688.978 161.141H712.374C718.033 161.141 722.313 159.693 725.215 156.797C728.117 153.829 729.568 150.028 729.568 145.394C729.568 143.005 729.205 141.014 728.479 139.421C727.827 137.756 726.92 136.453 725.759 135.512C724.598 134.498 723.256 133.774 721.733 133.34C720.209 132.905 718.577 132.688 716.836 132.688H694.963L688.978 161.141ZM686.257 124H716.836C724.308 124 730.003 125.774 733.921 129.321C737.911 132.869 739.906 138.227 739.906 145.394C739.906 147.783 739.434 150.426 738.491 153.322C737.548 156.145 735.916 158.788 733.594 161.25C731.345 163.711 728.298 165.775 724.453 167.44C720.681 169.033 715.929 169.829 710.198 169.829H687.128L680.381 201.54H670.043L686.257 124Z" fill="black"/>
<path d="M380.576 222.263C380.536 220.339 380.155 218.636 379.432 217.153C378.749 215.63 377.805 214.368 376.6 213.366C375.436 212.364 374.05 211.602 372.444 211.081C370.878 210.56 369.171 210.3 367.323 210.3C364.07 210.3 361.159 211.021 358.589 212.464C356.018 213.907 353.85 215.79 352.083 218.115C350.316 220.44 348.95 223.085 347.986 226.05C347.063 229.016 346.601 232.002 346.601 235.008C346.601 237.653 346.962 239.958 347.685 241.922C348.408 243.885 349.432 245.529 350.757 246.851C352.083 248.134 353.649 249.096 355.456 249.737C357.263 250.378 359.251 250.699 361.42 250.699C363.428 250.699 365.335 250.358 367.143 249.677C368.99 248.955 370.657 247.973 372.143 246.731C373.669 245.488 374.954 244.046 375.998 242.402C377.082 240.759 377.865 238.976 378.347 237.052H380.998C380.516 239.336 379.653 241.461 378.408 243.424C377.163 245.388 375.637 247.072 373.829 248.474C372.062 249.877 370.094 250.979 367.926 251.781C365.757 252.582 363.508 252.983 361.179 252.983C359.05 252.983 356.942 252.663 354.854 252.021C352.806 251.42 350.958 250.398 349.312 248.955C347.705 247.512 346.4 245.649 345.396 243.364C344.432 241.04 343.95 238.194 343.95 234.828C343.95 232.784 344.171 230.7 344.613 228.575C345.055 226.451 345.717 224.407 346.601 222.443C347.484 220.44 348.569 218.576 349.854 216.852C351.179 215.089 352.705 213.566 354.432 212.284C356.159 210.961 358.087 209.919 360.215 209.157C362.384 208.396 364.733 208.015 367.263 208.015C369.753 208.015 371.982 208.356 373.95 209.037C375.958 209.719 377.645 210.7 379.01 211.983C380.416 213.225 381.48 214.728 382.203 216.492C382.926 218.215 383.267 220.139 383.227 222.263H380.576Z" fill="black"/>
<path d="M388.173 234.647C388.173 231.241 388.715 227.954 389.799 224.788C390.883 221.582 392.409 218.736 394.377 216.251C396.385 213.766 398.815 211.783 401.666 210.3C404.518 208.777 407.69 208.015 411.184 208.015C413.996 208.015 416.485 208.436 418.654 209.278C420.823 210.119 422.65 211.322 424.136 212.885C425.622 214.448 426.746 216.352 427.509 218.596C428.313 220.8 428.714 223.285 428.714 226.05C428.714 229.257 428.192 232.463 427.148 235.669C426.104 238.876 424.598 241.761 422.63 244.326C420.662 246.891 418.252 248.975 415.401 250.578C412.59 252.182 409.417 252.983 405.883 252.983C403.032 252.983 400.502 252.562 398.293 251.721C396.124 250.839 394.277 249.597 392.751 247.993C391.265 246.39 390.12 244.466 389.317 242.222C388.554 239.938 388.173 237.413 388.173 234.647ZM390.823 234.707C390.823 237.072 391.144 239.236 391.787 241.2C392.43 243.164 393.373 244.847 394.618 246.25C395.903 247.653 397.45 248.755 399.257 249.556C401.104 250.318 403.213 250.699 405.582 250.699C408.755 250.699 411.606 249.977 414.136 248.534C416.666 247.092 418.815 245.208 420.582 242.883C422.349 240.559 423.694 237.954 424.618 235.068C425.582 232.142 426.064 229.237 426.064 226.351C426.064 224.067 425.762 221.942 425.16 219.979C424.558 218.015 423.634 216.311 422.389 214.869C421.184 213.426 419.658 212.304 417.811 211.502C416.004 210.7 413.875 210.3 411.425 210.3C408.293 210.3 405.462 210.961 402.931 212.284C400.401 213.606 398.233 215.39 396.425 217.634C394.658 219.878 393.273 222.484 392.269 225.449C391.305 228.375 390.823 231.461 390.823 234.707Z" fill="black"/>
<path d="M441.438 209.037H444.57L463.425 249.316H463.546L471.919 209.037H474.57L465.232 251.961H462.16L443.185 211.682H443.064L434.871 251.961H432.221L441.438 209.037Z" fill="black"/>
<path d="M484.242 209.037H511.23L510.748 211.322H486.411L482.797 228.515H504.604L504.182 230.8H482.315L477.917 251.961H475.267L484.242 209.037Z" fill="black"/>
<path d="M517.348 209.037H545.42L544.877 211.322H519.516L515.902 228.515H539.516L539.094 230.8H515.42L511.444 249.677H537.588L537.106 251.961H508.312L517.348 209.037Z" fill="black"/>
<path d="M550.881 230.138H566.483C568.17 230.138 569.736 229.918 571.182 229.477C572.668 228.996 573.953 228.335 575.037 227.493C576.122 226.612 576.965 225.529 577.568 224.247C578.21 222.964 578.531 221.482 578.531 219.798C578.531 218.035 578.27 216.612 577.748 215.53C577.226 214.408 576.483 213.546 575.519 212.945C574.555 212.304 573.391 211.883 572.025 211.682C570.7 211.442 569.194 211.322 567.507 211.322H554.857L550.881 230.138ZM552.688 209.037H568.592C570.198 209.037 571.764 209.198 573.29 209.518C574.817 209.799 576.162 210.32 577.327 211.081C578.491 211.843 579.415 212.885 580.098 214.207C580.82 215.53 581.182 217.213 581.182 219.257C581.182 221.021 580.881 222.644 580.278 224.127C579.676 225.57 578.833 226.832 577.748 227.914C576.704 228.996 575.439 229.858 573.953 230.499C572.467 231.1 570.861 231.421 569.134 231.461V231.581C573.23 232.263 575.278 234.707 575.278 238.916C575.278 240.399 575.218 241.901 575.098 243.424C575.017 244.947 574.977 246.37 574.977 247.693C574.977 248.414 575.017 249.136 575.098 249.857C575.218 250.578 575.399 251.28 575.64 251.961H572.989C572.748 251.4 572.588 250.779 572.507 250.097C572.467 249.376 572.447 248.554 572.447 247.633C572.447 246.911 572.447 246.23 572.447 245.589C572.487 244.947 572.507 244.306 572.507 243.665C572.547 242.984 572.568 242.282 572.568 241.561C572.608 240.799 572.628 239.958 572.628 239.036C572.628 237.593 572.387 236.431 571.905 235.549C571.463 234.667 570.78 234.006 569.857 233.565C568.973 233.084 567.889 232.784 566.604 232.663C565.319 232.503 563.873 232.423 562.267 232.423H550.399L546.182 251.961H543.592L552.688 209.037Z" fill="black"/>
<path d="M592.38 209.037H620.451L619.909 211.322H594.548L590.934 228.515H614.548L614.126 230.8H590.452L586.476 249.677H612.62L612.138 251.961H583.343L592.38 209.037Z" fill="black"/>
<path d="M627.841 209.037H630.973L649.828 249.316H649.949L658.322 209.037H660.973L651.636 251.961H648.563L629.588 211.682H629.467L621.275 251.961H618.624L627.841 209.037Z" fill="black"/>
<path d="M700.705 222.263C700.665 220.339 700.284 218.636 699.561 217.153C698.878 215.63 697.934 214.368 696.729 213.366C695.565 212.364 694.179 211.602 692.573 211.081C691.007 210.56 689.3 210.3 687.453 210.3C684.2 210.3 681.288 211.021 678.718 212.464C676.147 213.907 673.979 215.79 672.212 218.115C670.445 220.44 669.079 223.085 668.115 226.05C667.192 229.016 666.73 232.002 666.73 235.008C666.73 237.653 667.091 239.958 667.814 241.922C668.537 243.885 669.561 245.529 670.887 246.851C672.212 248.134 673.778 249.096 675.585 249.737C677.392 250.378 679.38 250.699 681.549 250.699C683.557 250.699 685.465 250.358 687.272 249.677C689.119 248.955 690.786 247.973 692.272 246.731C693.798 245.488 695.083 244.046 696.127 242.402C697.211 240.759 697.995 238.976 698.476 237.052H701.127C700.645 239.336 699.782 241.461 698.537 243.424C697.292 245.388 695.766 247.072 693.958 248.474C692.191 249.877 690.224 250.979 688.055 251.781C685.886 252.582 683.637 252.983 681.308 252.983C679.18 252.983 677.071 252.663 674.983 252.021C672.935 251.42 671.087 250.398 669.441 248.955C667.834 247.512 666.529 245.649 665.525 243.364C664.561 241.04 664.079 238.194 664.079 234.828C664.079 232.784 664.3 230.7 664.742 228.575C665.184 226.451 665.846 224.407 666.73 222.443C667.613 220.44 668.698 218.576 669.983 216.852C671.308 215.089 672.834 213.566 674.561 212.284C676.288 210.961 678.216 209.919 680.344 209.157C682.513 208.396 684.862 208.015 687.392 208.015C689.882 208.015 692.111 208.356 694.079 209.037C696.087 209.719 697.774 210.7 699.139 211.983C700.545 213.225 701.609 214.728 702.332 216.492C703.055 218.215 703.396 220.139 703.356 222.263H700.705Z" fill="black"/>
<path d="M714.928 209.037H743L742.458 211.322H717.097L713.482 228.515H737.096L736.675 230.8H713L709.025 249.677H735.169L734.687 251.961H705.892L714.928 209.037Z" fill="black"/>
<path d="M355.996 259.881H361.81L356.167 286.333H391.48L397.123 259.881H402.937L389.941 320.805H384.127L390.454 291.282H355.141L348.814 320.805H343L355.996 259.881Z" fill="black"/>
<path d="M427.314 322C423.324 322 419.761 321.374 416.626 320.123C413.548 318.871 410.926 317.136 408.76 314.918C406.651 312.642 405.026 309.912 403.886 306.726C402.803 303.541 402.262 300.014 402.262 296.146C402.262 291.253 403.003 286.56 404.485 282.066C405.967 277.572 408.133 273.591 410.983 270.121C413.833 266.594 417.31 263.806 421.414 261.758C425.518 259.654 430.192 258.601 435.436 258.601C439.313 258.601 442.818 259.227 445.953 260.478C449.088 261.673 451.739 263.38 453.905 265.598C456.128 267.817 457.809 270.49 458.95 273.619C460.147 276.748 460.745 280.246 460.745 284.114C460.745 289.063 460.004 293.842 458.522 298.449C457.097 303 454.959 307.039 452.109 310.566C449.259 314.036 445.754 316.823 441.593 318.928C437.488 320.976 432.729 322 427.314 322ZM454.931 285.565C454.931 282.379 454.532 279.45 453.734 276.776C452.993 274.102 451.796 271.799 450.143 269.865C448.547 267.874 446.523 266.338 444.072 265.257C441.621 264.119 438.714 263.55 435.351 263.55C430.734 263.55 426.715 264.517 423.295 266.451C419.932 268.329 417.11 270.832 414.83 273.96C412.55 277.032 410.84 280.559 409.7 284.541C408.617 288.466 408.076 292.505 408.076 296.658C408.076 299.786 408.532 302.602 409.444 305.105C410.356 307.608 411.667 309.77 413.377 311.59C415.144 313.353 417.281 314.719 419.79 315.686C422.298 316.653 425.119 317.136 428.254 317.136C432.415 317.136 436.12 316.198 439.37 314.32C442.676 312.443 445.469 310.026 447.749 307.068C450.086 304.053 451.853 300.668 453.05 296.914C454.304 293.102 454.931 289.319 454.931 285.565Z" fill="black"/>
<path d="M472.733 259.881H478.548L471.536 292.391L471.707 292.562L511.124 259.881H519.247L487.953 285.309L509.756 320.805H503.087L483.678 288.893L470.083 299.729L465.551 320.805H459.737L472.733 259.881Z" fill="black"/>
<path d="M519.626 259.881H525.44L518.429 292.391L518.6 292.562L558.016 259.881H566.139L534.845 285.309L556.648 320.805H549.979L530.57 288.893L516.975 299.729L512.444 320.805H506.63L519.626 259.881Z" fill="black"/>
<path d="M571.649 296.914H595.76L590.545 264.83H590.374L571.649 296.914ZM588.322 259.881H594.649L605.764 320.805H599.693L596.615 301.863H568.742L557.455 320.805H551.043L588.322 259.881Z" fill="black"/>
<path d="M618.579 259.881H624.393L611.483 320.805H605.668L618.579 259.881Z" fill="black"/>
<path d="M634.455 259.881H654.121C658.51 259.881 662.186 260.478 665.15 261.673C668.115 262.811 670.509 264.46 672.333 266.622C674.157 268.727 675.439 271.287 676.18 274.302C676.978 277.26 677.377 280.587 677.377 284.285C677.377 289.063 676.665 293.671 675.24 298.108C673.815 302.488 671.677 306.385 668.827 309.798C666.034 313.154 662.557 315.828 658.396 317.819C654.235 319.81 649.418 320.805 643.946 320.805H621.202L634.455 259.881ZM628.128 315.856H642.834C647.908 315.913 652.24 315.032 655.831 313.211C659.479 311.391 662.471 308.973 664.808 305.958C667.146 302.887 668.856 299.388 669.939 295.463C671.022 291.481 671.563 287.385 671.563 283.176C671.563 270.945 665.435 264.83 653.18 264.83H639.243L628.128 315.856Z" fill="black"/>
<path d="M707.266 322C703.276 322 699.714 321.374 696.579 320.123C693.5 318.871 690.878 317.136 688.712 314.918C686.603 312.642 684.979 309.912 683.839 306.726C682.756 303.541 682.214 300.014 682.214 296.146C682.214 291.253 682.955 286.56 684.437 282.066C685.919 277.572 688.085 273.591 690.935 270.121C693.785 266.594 697.263 263.806 701.367 261.758C705.471 259.654 710.145 258.601 715.389 258.601C719.265 258.601 722.771 259.227 725.906 260.478C729.041 261.673 731.691 263.38 733.857 265.598C736.08 267.817 737.762 270.49 738.902 273.619C740.099 276.748 740.698 280.246 740.698 284.114C740.698 289.063 739.957 293.842 738.475 298.449C737.05 303 734.912 307.039 732.062 310.566C729.212 314.036 725.706 316.823 721.545 318.928C717.441 320.976 712.681 322 707.266 322ZM734.883 285.565C734.883 282.379 734.484 279.45 733.686 276.776C732.945 274.102 731.748 271.799 730.095 269.865C728.499 267.874 726.476 266.338 724.025 265.257C721.574 264.119 718.667 263.55 715.303 263.55C710.686 263.55 706.668 264.517 703.248 266.451C699.885 268.329 697.063 270.832 694.783 273.96C692.503 277.032 690.793 280.559 689.653 284.541C688.57 288.466 688.028 292.505 688.028 296.658C688.028 299.786 688.484 302.602 689.396 305.105C690.308 307.608 691.619 309.77 693.329 311.59C695.096 313.353 697.234 314.719 699.742 315.686C702.25 316.653 705.072 317.136 708.207 317.136C712.368 317.136 716.073 316.198 719.322 314.32C722.628 312.443 725.421 310.026 727.701 307.068C730.038 304.053 731.805 300.668 733.002 296.914C734.256 293.102 734.883 289.319 734.883 285.565Z" fill="black"/>
</svg>
